<?xml version="1.0" standalone="no"?>
<!DOCTYPE svg PUBLIC "-//W3C//DTD SVG 20010904//EN"
 "http://www.w3.org/TR/2001/REC-SVG-20010904/DTD/svg10.dtd">
<svg version="1.0" xmlns="http://www.w3.org/2000/svg"
 width="512.000000pt" height="512.000000pt" viewBox="0 0 512.000000 512.000000"
 preserveAspectRatio="xMidYMid meet">

<g transform="translate(0.000000,512.000000) scale(0.100000,-0.100000)"
fill="#000000" stroke="none">
<path d="M837 3760 c-94 -20 -206 -68 -283 -121 l-46 -32 4 -53 c6 -74 57
-172 117 -226 40 -35 795 -478 815 -478 3 0 6 180 6 400 l0 400 -57 29 c-188
94 -370 120 -556 81z"/>
<path d="M3344 3526 c-570 -330 -637 -371 -657 -398 -44 -59 -39 -72 196 -493
120 -215 221 -396 225 -403 6 -9 157 73 568 309 307 177 563 325 567 329 11 9
-464 766 -504 803 -53 49 -66 44 -395 -147z"/>
<path d="M1582 3174 l3 -408 310 -179 c861 -495 834 -481 860 -469 47 22 42
44 -80 317 -189 422 -236 504 -373 642 -124 125 -424 340 -655 467 l-67 38 2
-408z"/>
<path d="M247 3010 c-85 -27 -150 -129 -167 -263 -30 -242 108 -590 302 -761
82 -72 166 -110 244 -109 58 0 70 5 156 55 51 30 108 64 126 74 17 10 32 21
32 25 0 3 -20 17 -45 30 -36 19 -44 28 -38 44 3 11 6 67 5 125 -1 173 -62 362
-167 519 -59 89 -177 201 -250 236 -62 31 -147 42 -198 25z m209 -221 c62 -29
156 -135 198 -221 46 -94 66 -174 66 -263 0 -95 -15 -143 -60 -187 -33 -33
-44 -38 -84 -38 -67 0 -127 33 -195 106 -99 106 -161 259 -161 399 0 95 15
143 60 187 33 33 43 38 86 38 28 0 65 -9 90 -21z"/>
<path d="M369 2621 c-51 -41 -33 -195 34 -289 90 -126 197 -104 197 40 0 162
-145 319 -231 249z"/>
<path d="M5025 1855 c-51 -32 -112 -41 -154 -23 l-33 13 -87 -85 c-115 -115
-241 -180 -397 -205 -37 -6 -41 -9 -52 -50 -17 -64 -52 -97 -181 -170 -63 -36
-111 -65 -105 -65 23 0 277 72 351 99 187 69 375 183 525 318 88 80 184 181
177 188 -2 2 -22 -7 -44 -20z"/>
<path d="M4965 1608 c-55 -49 -153 -126 -219 -169 -191 -129 -312 -181 -708
-304 -95 -30 -126 -44 -164 -78 -84 -74 -114 -145 -76 -180 23 -21 53 -21 161
-1 l86 17 59 87 c56 83 61 88 115 105 111 34 343 127 419 168 99 52 209 125
295 195 54 44 70 53 77 41 7 -10 19 8 45 65 29 61 35 86 30 112 -3 19 -9 34
-13 33 -4 0 -52 -41 -107 -91z"/>
<path d="M2685 1621 c-125 -32 -195 -155 -195 -345 0 -290 190 -640 410 -756
56 -30 75 -35 135 -35 l70 0 233 135 233 135 -103 6 c-57 3 -121 9 -144 13
l-41 7 -6 92 c-15 227 -128 471 -288 622 -104 98 -222 146 -304 126z m183
-227 c204 -101 338 -482 229 -646 -112 -167 -370 17 -448 320 -34 136 -18 250
43 309 55 51 98 56 176 17z"/>
<path d="M2797 1239 c-25 -14 -47 -69 -47 -114 0 -19 9 -60 19 -89 56 -159
183 -233 234 -135 46 87 -29 286 -126 332 -40 20 -55 21 -80 6z"/>
</g>
</svg>
